<svg width="375" height="812" viewBox="0 0 375 812" fill="none" xmlns="http://www.w3.org/2000/svg">
<rect width="375" height="812" fill="url(#paint0_linear_191_364)"/>
<path d="M187 373.31V370" stroke="white" stroke-width="1.4" stroke-linecap="round" stroke-linejoin="round"/>
<path d="M184.517 370L189.483 370" stroke="white" stroke-width="1.4" stroke-linecap="round" stroke-linejoin="round"/>
<path d="M187 414.69L187 418" stroke="white" stroke-width="1.4" stroke-linecap="round" stroke-linejoin="round"/>
<path d="M189.483 418L184.517 418" stroke="white" stroke-width="1.4" stroke-linecap="round" stroke-linejoin="round"/>
<path d="M207.69 394L211 394" stroke="white" stroke-width="1.4" stroke-linecap="round" stroke-linejoin="round"/>
<path d="M211 391.517L211 396.483" stroke="white" stroke-width="1.4" stroke-linecap="round" stroke-linejoin="round"/>
<path d="M166.31 394L163 394" stroke="white" stroke-width="1.4" stroke-linecap="round" stroke-linejoin="round"/>
<path d="M163 396.483L163 391.517" stroke="white" stroke-width="1.4" stroke-linecap="round" stroke-linejoin="round"/>
<path d="M176.656 376.082L175 373.215" stroke="white" stroke-width="1.4" stroke-linecap="round" stroke-linejoin="round"/>
<path d="M172.85 374.456L177.15 371.974" stroke="white" stroke-width="1.4" stroke-linecap="round" stroke-linejoin="round"/>
<path d="M197.344 411.918L199 414.785" stroke="white" stroke-width="1.4" stroke-linecap="round" stroke-linejoin="round"/>
<path d="M201.15 413.544L196.849 416.026" stroke="white" stroke-width="1.4" stroke-linecap="round" stroke-linejoin="round"/>
<path d="M204.917 383.656L207.784 382" stroke="white" stroke-width="1.4" stroke-linecap="round" stroke-linejoin="round"/>
<path d="M206.543 379.85L209.026 384.15" stroke="white" stroke-width="1.4" stroke-linecap="round" stroke-linejoin="round"/>
<path d="M169.083 404.344L166.216 406" stroke="white" stroke-width="1.4" stroke-linecap="round" stroke-linejoin="round"/>
<path d="M167.457 408.15L164.974 403.85" stroke="white" stroke-width="1.4" stroke-linecap="round" stroke-linejoin="round"/>
<path d="M169.083 383.655L166.216 382" stroke="white" stroke-width="1.4" stroke-linecap="round" stroke-linejoin="round"/>
<path d="M164.974 384.15L167.457 379.85" stroke="white" stroke-width="1.4" stroke-linecap="round" stroke-linejoin="round"/>
<path d="M204.917 404.345L207.784 406" stroke="white" stroke-width="1.4" stroke-linecap="round" stroke-linejoin="round"/>
<path d="M209.026 403.85L206.543 408.15" stroke="white" stroke-width="1.4" stroke-linecap="round" stroke-linejoin="round"/>
<path d="M197.344 376.083L199 373.216" stroke="white" stroke-width="1.4" stroke-linecap="round" stroke-linejoin="round"/>
<path d="M196.849 371.974L201.15 374.457" stroke="white" stroke-width="1.4" stroke-linecap="round" stroke-linejoin="round"/>
<path d="M176.656 411.917L175 414.784" stroke="white" stroke-width="1.4" stroke-linecap="round" stroke-linejoin="round"/>
<path d="M177.151 416.026L172.85 413.543" stroke="white" stroke-width="1.4" stroke-linecap="round" stroke-linejoin="round"/>
<circle cx="187" cy="394" r="19.9897" stroke="white" stroke-width="1.4"/>
<circle cx="186.172" cy="393.172" r="2.61034" stroke="white" stroke-width="1.4"/>
<path d="M188.783 381.586C188.783 383.028 187.614 384.197 186.172 384.197C184.731 384.197 183.562 383.028 183.562 381.586C183.562 380.145 184.731 378.976 186.172 378.976C187.614 378.976 188.783 380.145 188.783 381.586Z" stroke="white" stroke-width="1.4"/>
<circle cx="187.828" cy="404.759" r="4.26552" stroke="white" stroke-width="1.4"/>
<path d="M177.979 386.452C178.948 387.011 179.28 388.25 178.721 389.219C178.161 390.188 176.922 390.521 175.953 389.961C174.984 389.402 174.652 388.162 175.211 387.193C175.771 386.224 177.01 385.892 177.979 386.452Z" stroke="white" stroke-width="1.4"/>
<circle cx="198.283" cy="398.568" r="2.27788" transform="rotate(-60 198.283 398.568)" stroke="white" stroke-width="1.4"/>
<path d="M176.197 398.46C176.933 398.035 177.874 398.287 178.299 399.023C178.724 399.759 178.472 400.701 177.736 401.126C177 401.551 176.059 401.298 175.634 400.562C175.209 399.826 175.461 398.885 176.197 398.46Z" stroke="white" stroke-width="1.4"/>
<path d="M195.315 385.23C196.959 384.28 199.062 384.844 200.011 386.488C200.96 388.132 200.397 390.235 198.753 391.184C197.108 392.134 195.006 391.57 194.056 389.926C193.107 388.281 193.67 386.179 195.315 385.23Z" stroke="white" stroke-width="1.4"/>
<path d="M147.495 445.72C147.495 444.68 147.72 443.755 148.17 442.945C148.62 442.125 149.245 441.49 150.045 441.04C150.855 440.58 151.77 440.35 152.79 440.35C154.04 440.35 155.11 440.68 156 441.34C156.89 442 157.485 442.9 157.785 444.04H154.965C154.755 443.6 154.455 443.265 154.065 443.035C153.685 442.805 153.25 442.69 152.76 442.69C151.97 442.69 151.33 442.965 150.84 443.515C150.35 444.065 150.105 444.8 150.105 445.72C150.105 446.64 150.35 447.375 150.84 447.925C151.33 448.475 151.97 448.75 152.76 448.75C153.25 448.75 153.685 448.635 154.065 448.405C154.455 448.175 154.755 447.84 154.965 447.4H157.785C157.485 448.54 156.89 449.44 156 450.1C155.11 450.75 154.04 451.075 152.79 451.075C151.77 451.075 150.855 450.85 150.045 450.4C149.245 449.94 148.62 449.305 148.17 448.495C147.72 447.685 147.495 446.76 147.495 445.72ZM164.336 451.105C163.346 451.105 162.436 450.875 161.606 450.415C160.786 449.955 160.131 449.315 159.641 448.495C159.161 447.665 158.921 446.735 158.921 445.705C158.921 444.675 159.161 443.75 159.641 442.93C160.131 442.11 160.786 441.47 161.606 441.01C162.436 440.55 163.346 440.32 164.336 440.32C165.326 440.32 166.231 440.55 167.051 441.01C167.881 441.47 168.531 442.11 169.001 442.93C169.481 443.75 169.721 444.675 169.721 445.705C169.721 446.735 169.481 447.665 169.001 448.495C168.521 449.315 167.871 449.955 167.051 450.415C166.231 450.875 165.326 451.105 164.336 451.105ZM164.336 448.765C165.176 448.765 165.846 448.485 166.346 447.925C166.856 447.365 167.111 446.625 167.111 445.705C167.111 444.775 166.856 444.035 166.346 443.485C165.846 442.925 165.176 442.645 164.336 442.645C163.486 442.645 162.806 442.92 162.296 443.47C161.796 444.02 161.546 444.765 161.546 445.705C161.546 446.635 161.796 447.38 162.296 447.94C162.806 448.49 163.486 448.765 164.336 448.765ZM181.033 440.47L177.298 451H174.088L170.353 440.47H173.083L175.693 448.42L178.318 440.47H181.033ZM184.67 440.47V451H182.105V440.47H184.67ZM190.474 440.47C191.584 440.47 192.554 440.69 193.384 441.13C194.214 441.57 194.854 442.19 195.304 442.99C195.764 443.78 195.994 444.695 195.994 445.735C195.994 446.765 195.764 447.68 195.304 448.48C194.854 449.28 194.209 449.9 193.369 450.34C192.539 450.78 191.574 451 190.474 451H186.529V440.47H190.474ZM190.309 448.78C191.279 448.78 192.034 448.515 192.574 447.985C193.114 447.455 193.384 446.705 193.384 445.735C193.384 444.765 193.114 444.01 192.574 443.47C192.034 442.93 191.279 442.66 190.309 442.66H189.094V448.78H190.309ZM207.056 444.67V446.8H200.456V444.67H207.056ZM211.961 442.435V440.05H216.116V451H213.446V442.435H211.961ZM220.63 447.79C220.78 448.58 221.24 448.975 222.01 448.975C222.54 448.975 222.915 448.74 223.135 448.27C223.355 447.8 223.465 447.035 223.465 445.975C223.245 446.285 222.945 446.525 222.565 446.695C222.185 446.865 221.76 446.95 221.29 446.95C220.65 446.95 220.08 446.82 219.58 446.56C219.08 446.29 218.685 445.895 218.395 445.375C218.115 444.845 217.975 444.205 217.975 443.455C217.975 442.715 218.125 442.07 218.425 441.52C218.735 440.97 219.17 440.545 219.73 440.245C220.3 439.945 220.97 439.795 221.74 439.795C223.22 439.795 224.255 440.255 224.845 441.175C225.435 442.095 225.73 443.45 225.73 445.24C225.73 446.54 225.61 447.615 225.37 448.465C225.14 449.305 224.745 449.945 224.185 450.385C223.635 450.825 222.88 451.045 221.92 451.045C221.16 451.045 220.51 450.895 219.97 450.595C219.44 450.295 219.03 449.9 218.74 449.41C218.46 448.92 218.3 448.38 218.26 447.79H220.63ZM221.875 444.925C222.295 444.925 222.63 444.8 222.88 444.55C223.13 444.29 223.255 443.94 223.255 443.5C223.255 443.02 223.125 442.65 222.865 442.39C222.605 442.13 222.255 442 221.815 442C221.375 442 221.025 442.135 220.765 442.405C220.515 442.665 220.39 443.025 220.39 443.485C220.39 443.915 220.515 444.265 220.765 444.535C221.025 444.795 221.395 444.925 221.875 444.925Z" fill="white"/>
<rect opacity="0.35" x="336.5" y="17.8333" width="21" height="10.3333" rx="2.16667" stroke="white"/>
<path opacity="0.4" d="M359 21V25C359.808 24.6612 360.333 23.8731 360.333 23C360.333 22.1269 359.808 21.3388 359 21Z" fill="white"/>
<rect x="338" y="19.3333" width="18" height="7.33333" rx="1.33333" fill="white"/>
<path fill-rule="evenodd" clip-rule="evenodd" d="M323.334 19.5739C325.558 19.574 327.698 20.4117 329.311 21.9138C329.432 22.0298 329.626 22.0284 329.746 21.9106L330.906 20.7627C330.967 20.703 331 20.6221 331 20.5379C330.999 20.4537 330.965 20.3731 330.904 20.3141C326.672 16.3398 319.995 16.3398 315.763 20.3141C315.702 20.3731 315.667 20.4536 315.667 20.5378C315.666 20.622 315.7 20.7029 315.76 20.7627L316.921 21.9106C317.041 22.0285 317.235 22.03 317.356 21.9138C318.969 20.4116 321.109 19.5739 323.334 19.5739ZM323.332 23.2995C324.556 23.2994 325.736 23.756 326.643 24.5805C326.766 24.6976 326.959 24.695 327.079 24.5748L328.239 23.3977C328.3 23.3359 328.334 23.2522 328.333 23.1651C328.332 23.0781 328.297 22.995 328.234 22.9345C325.472 20.3552 321.194 20.3552 318.432 22.9345C318.37 22.995 318.334 23.0781 318.333 23.1652C318.333 23.2523 318.367 23.336 318.428 23.3977L319.588 24.5748C319.708 24.695 319.901 24.6976 320.024 24.5805C320.93 23.7565 322.109 23.3 323.332 23.2995ZM325.667 26.0231C325.668 26.1085 325.634 26.1909 325.572 26.2508L323.557 28.2419C323.498 28.3004 323.417 28.3333 323.333 28.3333C323.249 28.3333 323.169 28.3004 323.11 28.2419L321.095 26.2508C321.032 26.1908 320.998 26.1084 321 26.023C321.002 25.9375 321.04 25.8566 321.104 25.7993C322.391 24.7336 324.276 24.7336 325.562 25.7993C325.627 25.8567 325.665 25.9376 325.667 26.0231Z" fill="white"/>
<path fill-rule="evenodd" clip-rule="evenodd" d="M310.667 18.6667C310.667 18.1144 310.219 17.6667 309.667 17.6667H308.667C308.114 17.6667 307.667 18.1144 307.667 18.6667V27.3333C307.667 27.8856 308.114 28.3333 308.667 28.3333H309.667C310.219 28.3333 310.667 27.8856 310.667 27.3333V18.6667ZM304 20H305C305.552 20 306 20.4477 306 21V27.3333C306 27.8856 305.552 28.3333 305 28.3333H304C303.448 28.3333 303 27.8856 303 27.3333V21C303 20.4477 303.448 20 304 20ZM300.333 22.3333H299.333C298.781 22.3333 298.333 22.781 298.333 23.3333V27.3333C298.333 27.8856 298.781 28.3333 299.333 28.3333H300.333C300.886 28.3333 301.333 27.8856 301.333 27.3333V23.3333C301.333 22.781 300.886 22.3333 300.333 22.3333ZM296.667 25.3333C296.667 24.781 296.219 24.3333 295.667 24.3333H294.667C294.114 24.3333 293.667 24.781 293.667 25.3333V27.3333C293.667 27.8856 294.114 28.3333 294.667 28.3333H295.667C296.219 28.3333 296.667 27.8856 296.667 27.3333V25.3333Z" fill="white"/>
<path d="M36.9974 28.2563C39.6854 28.2563 41.2821 26.1543 41.2821 22.5947C41.2821 21.2544 41.0257 20.1265 40.535 19.2549C39.8245 17.8999 38.6014 17.1675 37.056 17.1675C34.7562 17.1675 33.1302 18.7129 33.1302 20.8809C33.1302 22.917 34.595 24.3965 36.6092 24.3965C37.847 24.3965 38.8504 23.8179 39.3485 22.8145H39.3704C39.3704 22.8145 39.3997 22.8145 39.4071 22.8145C39.4217 22.8145 39.473 22.8145 39.473 22.8145C39.473 25.2314 38.5574 26.6743 37.012 26.6743C36.1038 26.6743 35.4007 26.1763 35.159 25.3779H33.2767C33.5916 27.1138 35.0638 28.2563 36.9974 28.2563ZM37.0633 22.895C35.8475 22.895 34.9832 22.0308 34.9832 20.8223C34.9832 19.6431 35.8914 18.7422 37.0706 18.7422C38.2498 18.7422 39.158 19.6577 39.158 20.8516C39.158 22.0308 38.2718 22.895 37.0633 22.895ZM44.2666 26.8794C44.9624 26.8794 45.4385 26.3813 45.4385 25.7222C45.4385 25.0557 44.9624 24.5649 44.2666 24.5649C43.5781 24.5649 43.0947 25.0557 43.0947 25.7222C43.0947 26.3813 43.5781 26.8794 44.2666 26.8794ZM44.2666 21.3862C44.9624 21.3862 45.4385 20.8955 45.4385 20.2363C45.4385 19.5698 44.9624 19.0791 44.2666 19.0791C43.5781 19.0791 43.0947 19.5698 43.0947 20.2363C43.0947 20.8955 43.5781 21.3862 44.2666 21.3862ZM47.4635 20.522V20.5513H49.236V20.522C49.236 19.4453 49.9831 18.7202 51.089 18.7202C52.1291 18.7202 52.8908 19.394 52.8908 20.3242C52.8908 21.0713 52.5319 21.6206 51.089 23.0854L47.5661 26.689V28H54.9049V26.396H50.1588V26.2715L52.3708 24.0522C54.1652 22.2798 54.7438 21.3423 54.7438 20.207C54.7438 18.4419 53.235 17.1675 51.1476 17.1675C48.9796 17.1675 47.4635 18.5444 47.4635 20.522ZM57.1424 28H59.1199L63.639 19.0425V17.4312H56.2855V19.0205H61.7347V19.1377L57.1424 28Z" fill="white"/>
<defs>
<linearGradient id="paint0_linear_191_364" x1="-2.31566e-05" y1="560.5" x2="187" y2="-4.1212e-06" gradientUnits="userSpaceOnUse">
<stop stop-color="#CC2B5E"/>
<stop offset="1" stop-color="#753A88"/>
</linearGradient>
</defs>
</svg>
